<!--?xml version="1.0" encoding="iso-8859-1"?-->
<!-- Generator: Adobe Illustrator 22.1.0, SVG Export Plug-In . SVG Version: 6.00 Build 0)  -->
<svg version="1.1" id="_x36_" xmlns="http://www.w3.org/2000/svg" xmlns:xlink="http://www.w3.org/1999/xlink" x="0px" y="0px" viewBox="0 0 512 305.1" style="width: 256px; height: 154px;" xml:space="preserve">
<style type="text/css">
	.st0{fill:#040000;}
	.st1{opacity:0.16;fill:#FFFFFF;}
	.st2{fill:#C92A4E;}
	.st3{opacity:4.000000e-02;fill:#FFFFFF;}
	.st4{fill:#482767;}
	.st5{opacity:6.000000e-02;fill:#FFFFFF;}
</style>
<g>
	<path class="st0" d="M505.7,113H4.1C1.8,113,0,114.4,0,116v50.5c0,1.6,1.8,2.9,4.1,2.9h501.7c3.5,0,6.3-2,6.3-4.5v-47.3
		C512,115.1,509.2,113,505.7,113z" style="fill: rgb(104, 96, 96);"></path>
	<path class="st1" d="M358.5,135.3h-205c-0.4,0-0.8-0.4-0.8-0.8v-11.1c0-0.4,0.4-0.8,0.8-0.8h205c0.4,0,0.8,0.4,0.8,0.8v11.1
		C359.3,134.9,358.9,135.3,358.5,135.3z"></path>
	<g>
		<path class="st2" d="M77.4,76.1V229c0,13.1-10.6,23.8-23.7,23.8h-7.8c-13.1,0-23.8-10.6-23.8-23.8V76.1
			c0-13.1,10.6-23.7,23.8-23.7h7.8C66.8,52.5,77.4,63,77.4,76.1z" style="fill: rgb(7, 176, 68);"></path>
		<path class="st2" d="M489.9,76.1V229c0,13.1-10.6,23.8-23.8,23.8h-7.8c-13,0-23.7-10.6-23.7-23.8V76.1c0-13.1,10.6-23.7,23.7-23.7
			h7.8C479.2,52.5,489.9,63,489.9,76.1z" style="fill: rgb(7, 176, 68);"></path>
	</g>
	<g>
		<rect x="441.6" y="118.7" class="st3" width="48.3" height="30.5"></rect>
		<rect x="22.1" y="118.7" class="st3" width="48.3" height="30.5"></rect>
	</g>
	<g>
		<path class="st4" d="M123.1,0H84.4c-7.7,0-13.9,6.2-13.9,13.9v277.3c0,7.7,6.2,13.9,13.9,13.9h38.7c7.7,0,13.9-6.2,13.9-13.9V13.9
			C137,6.2,130.7,0,123.1,0z" style="fill: rgb(235, 18, 18);"></path>
		<path class="st4" d="M427.6,0h-38.7C381.3,0,375,6.2,375,13.9v277.3c0,7.7,6.2,13.9,13.9,13.9h38.7c7.7,0,13.9-6.2,13.9-13.9V13.9
			C441.5,6.2,435.3,0,427.6,0z" style="fill: rgb(235, 18, 18);"></path>
	</g>
	<g>
		<polygon class="st5" points="70.5,133.9 137,124.5 137,103.4 70.5,103.4 		"></polygon>
		<polygon class="st5" points="375,103.4 375,124.5 441.5,133.9 441.5,103.4 		"></polygon>
	</g>
</g>
</svg>
